<svg width="124" height="25" viewBox="0 0 124 25" fill="none" xmlns="http://www.w3.org/2000/svg">
<rect width="25" height="25" rx="9" fill="url(#paint0_linear_442_6889)"/>
<path d="M19.4231 5.79307C16.2298 5.79307 12.9204 2.83303 12.8876 2.80338C12.6677 2.60395 12.3324 2.60395 12.1125 2.80338C12.0795 2.83326 8.77883 5.79307 5.57698 5.79307C5.25837 5.79307 5.00006 6.05138 5.00006 6.36999V13.2791C5.00006 18.8762 9.16298 21.1128 12.2943 22.3082C12.3606 22.3335 12.4303 22.3461 12.5001 22.3461C12.5698 22.3461 12.6396 22.3335 12.7058 22.3082C17.0964 20.632 20.0001 18.0175 20.0001 13.2791V6.36999C20.0001 6.05138 19.7418 5.79307 19.4231 5.79307Z" fill="white"/>
<g clip-path="url(#clip0_442_6889)">
<path d="M12.5 18.0555C15.2806 18.0555 17.5347 15.8014 17.5347 13.0208C17.5347 10.2402 15.2806 7.98608 12.5 7.98608C9.71939 7.98608 7.46527 10.2402 7.46527 13.0208C7.46527 15.8014 9.71939 18.0555 12.5 18.0555Z" fill="url(#paint1_linear_442_6889)"/>
<path d="M11.5038 15.1162L10.3233 13.9631C10.2977 13.9383 10.2774 13.9086 10.2636 13.8758C10.2497 13.843 10.2426 13.8078 10.2426 13.7721C10.2426 13.7365 10.2497 13.7013 10.2636 13.6685C10.2774 13.6357 10.2977 13.606 10.3233 13.5812L10.7147 13.1992C10.7672 13.1484 10.8375 13.1199 10.9106 13.1199C10.9837 13.1199 11.0539 13.1484 11.1064 13.1992L11.8092 13.8862L13.7802 10.8897C13.8209 10.8292 13.8835 10.7869 13.9547 10.7718C14.026 10.7566 14.1004 10.7698 14.1621 10.8084L14.6281 11.1011C14.6585 11.1199 14.6849 11.1445 14.7056 11.1736C14.7264 11.2027 14.7411 11.2356 14.7488 11.2705C14.7566 11.3054 14.7573 11.3415 14.7508 11.3766C14.7443 11.4118 14.7309 11.4452 14.7113 11.4751L12.3774 15.0244C12.3307 15.0939 12.2692 15.1523 12.1975 15.1954C12.1257 15.2386 12.0453 15.2655 11.9621 15.2743C11.8788 15.283 11.7946 15.2734 11.7154 15.2461C11.6362 15.2188 11.564 15.1745 11.5038 15.1162Z" fill="white"/>
</g>
<path d="M39.3089 9.68182V11.7273H33.3963V9.68182H39.3089ZM34.7386 7.32955H37.4616V16.483C37.4616 16.7344 37.5 16.9304 37.5767 17.071C37.6534 17.2074 37.7599 17.3033 37.8963 17.3587C38.0369 17.4141 38.1989 17.4418 38.3821 17.4418C38.5099 17.4418 38.6378 17.4311 38.7656 17.4098C38.8935 17.3842 38.9915 17.3651 39.0597 17.3523L39.4879 19.3786C39.3516 19.4212 39.1598 19.4702 38.9126 19.5256C38.6655 19.5852 38.3651 19.6214 38.0114 19.6342C37.3551 19.6598 36.7798 19.5724 36.2855 19.3722C35.7955 19.1719 35.4141 18.8608 35.1413 18.4389C34.8686 18.017 34.7344 17.4844 34.7386 16.8409V7.32955ZM41.0827 19.5V9.68182H43.7227V11.3949H43.8249C44.0039 10.7855 44.3043 10.3253 44.7262 10.0142C45.1481 9.69886 45.6339 9.54119 46.1836 9.54119C46.32 9.54119 46.467 9.54972 46.6246 9.56676C46.7823 9.58381 46.9208 9.60724 47.0401 9.63707V12.0533C46.9123 12.0149 46.7354 11.9808 46.5096 11.951C46.2837 11.9212 46.0771 11.9062 45.8896 11.9062C45.489 11.9062 45.131 11.9936 44.8157 12.1683C44.5046 12.3388 44.2575 12.5774 44.0742 12.8842C43.8952 13.1911 43.8058 13.5447 43.8058 13.9453V19.5H41.0827ZM54.7441 15.3196V9.68182H57.4672V19.5H54.8528V17.7166H54.7505C54.5289 18.2919 54.1603 18.7543 53.6447 19.1037C53.1333 19.4531 52.5091 19.6278 51.7718 19.6278C51.1156 19.6278 50.5382 19.4787 50.0396 19.1804C49.541 18.8821 49.1511 18.4581 48.8699 17.9084C48.5929 17.3587 48.4522 16.7003 48.448 15.9332V9.68182H51.171V15.4474C51.1752 16.027 51.3308 16.4851 51.6376 16.8217C51.9444 17.1584 52.3556 17.3267 52.8713 17.3267C53.1994 17.3267 53.5062 17.2521 53.7917 17.103C54.0772 16.9496 54.3074 16.7237 54.4821 16.4254C54.661 16.1271 54.7484 15.7585 54.7441 15.3196ZM67.8143 12.4815L65.3214 12.6349C65.2788 12.4219 65.1871 12.2301 65.0465 12.0597C64.9059 11.8849 64.7205 11.7464 64.4904 11.6442C64.2646 11.5376 63.994 11.4844 63.6786 11.4844C63.2567 11.4844 62.9009 11.5739 62.6112 11.7528C62.3214 11.9276 62.1765 12.1619 62.1765 12.456C62.1765 12.6903 62.2702 12.8885 62.4577 13.0504C62.6452 13.2124 62.967 13.3423 63.4229 13.4403L65.1999 13.7983C66.1545 13.9943 66.8661 14.3097 67.3349 14.7443C67.8036 15.179 68.038 15.75 68.038 16.4574C68.038 17.1009 67.8484 17.6655 67.4691 18.1513C67.0941 18.6371 66.5785 19.0163 65.9222 19.2891C65.2702 19.5575 64.5181 19.6918 63.6658 19.6918C62.3661 19.6918 61.3306 19.4212 60.5593 18.88C59.7923 18.3345 59.3427 17.593 59.2106 16.6555L61.8888 16.5149C61.9698 16.9112 62.1658 17.2138 62.4769 17.4226C62.788 17.6271 63.1864 17.7294 63.6722 17.7294C64.1495 17.7294 64.533 17.6378 64.8228 17.4545C65.1168 17.267 65.266 17.0263 65.2702 16.7322C65.266 16.4851 65.1616 16.2827 64.957 16.125C64.7525 15.9631 64.4371 15.8395 64.011 15.7543L62.3107 15.4155C61.3519 15.2237 60.6381 14.8913 60.1694 14.4183C59.7049 13.9453 59.4727 13.3423 59.4727 12.6094C59.4727 11.9787 59.6431 11.4354 59.984 10.9794C60.3292 10.5234 60.8129 10.1719 61.435 9.92472C62.0614 9.67756 62.7944 9.55398 63.6339 9.55398C64.8739 9.55398 65.8498 9.81605 66.5614 10.3402C67.2773 10.8643 67.695 11.5781 67.8143 12.4815ZM74.975 9.68182V11.7273H69.0623V9.68182H74.975ZM70.4047 7.32955H73.1277V16.483C73.1277 16.7344 73.166 16.9304 73.2427 17.071C73.3194 17.2074 73.426 17.3033 73.5623 17.3587C73.7029 17.4141 73.8649 17.4418 74.0481 17.4418C74.176 17.4418 74.3038 17.4311 74.4316 17.4098C74.5595 17.3842 74.6575 17.3651 74.7257 17.3523L75.1539 19.3786C75.0176 19.4212 74.8258 19.4702 74.5787 19.5256C74.3315 19.5852 74.0311 19.6214 73.6774 19.6342C73.0211 19.6598 72.4458 19.5724 71.9515 19.3722C71.4615 19.1719 71.0801 18.8608 70.8074 18.4389C70.5346 18.017 70.4004 17.4844 70.4047 16.8409V7.32955ZM76.7488 23.1818V9.68182H79.4334V11.331H79.5549C79.6742 11.0668 79.8468 10.7983 80.0726 10.5256C80.3027 10.2486 80.601 10.0185 80.9675 9.83523C81.3382 9.64773 81.7985 9.55398 82.3482 9.55398C83.0641 9.55398 83.7246 9.74148 84.3297 10.1165C84.9348 10.4872 85.4185 11.0476 85.7807 11.7976C86.1429 12.5433 86.324 13.4787 86.324 14.6037C86.324 15.6989 86.1472 16.6236 85.7935 17.3778C85.4441 18.1278 84.9668 18.6967 84.3617 19.0845C83.7608 19.468 83.0875 19.6598 82.3418 19.6598C81.8134 19.6598 81.3638 19.5724 80.9931 19.3977C80.6266 19.223 80.3262 19.0036 80.0918 18.7393C79.8574 18.4709 79.6784 18.2003 79.5549 17.9276H79.4718V23.1818H76.7488ZM79.4142 14.5909C79.4142 15.1747 79.4952 15.6839 79.6571 16.1186C79.8191 16.5533 80.0534 16.892 80.3603 17.1349C80.6671 17.3736 81.04 17.4929 81.4789 17.4929C81.9221 17.4929 82.2971 17.3714 82.6039 17.1286C82.9107 16.8814 83.1429 16.5405 83.3006 16.1058C83.4625 15.6669 83.5435 15.1619 83.5435 14.5909C83.5435 14.0241 83.4647 13.5256 83.307 13.0952C83.1493 12.6648 82.9171 12.3281 82.6103 12.0852C82.3034 11.8423 81.9263 11.7209 81.4789 11.7209C81.0357 11.7209 80.6607 11.8381 80.3539 12.0724C80.0513 12.3068 79.8191 12.6392 79.6571 13.0696C79.4952 13.5 79.4142 14.0071 79.4142 14.5909ZM90.8624 6.40909V19.5H88.1394V6.40909H90.8624ZM95.8434 19.6854C95.217 19.6854 94.6587 19.5767 94.1687 19.3594C93.6786 19.1378 93.2908 18.8118 93.0053 18.3814C92.7241 17.9467 92.5835 17.4055 92.5835 16.7578C92.5835 16.2124 92.6836 15.7543 92.8839 15.3835C93.0842 15.0128 93.3569 14.7145 93.7021 14.4886C94.0472 14.2628 94.4393 14.0923 94.8782 13.9773C95.3214 13.8622 95.7859 13.7812 96.2717 13.7344C96.8427 13.6747 97.3029 13.6193 97.6523 13.5682C98.0018 13.5128 98.2553 13.4318 98.413 13.3253C98.5707 13.2187 98.6495 13.0611 98.6495 12.8523V12.8139C98.6495 12.4091 98.5217 12.0959 98.266 11.8743C98.0146 11.6527 97.6566 11.5419 97.1921 11.5419C96.7021 11.5419 96.3121 11.6506 96.0224 11.8679C95.7326 12.081 95.5408 12.3494 95.4471 12.6733L92.9286 12.4688C93.0565 11.8722 93.3079 11.3565 93.6829 10.9219C94.0579 10.483 94.5415 10.1463 95.1339 9.91193C95.7305 9.6733 96.4208 9.55398 97.2049 9.55398C97.7504 9.55398 98.2724 9.6179 98.771 9.74574C99.2738 9.87358 99.7191 10.0717 100.107 10.3402C100.499 10.6087 100.808 10.9538 101.034 11.3757C101.26 11.7933 101.373 12.294 101.373 12.8778V19.5H98.7901V18.1385H98.7134C98.5558 18.4453 98.3448 18.7159 98.0806 18.9503C97.8164 19.1804 97.4989 19.3615 97.1282 19.4936C96.7575 19.6214 96.3292 19.6854 95.8434 19.6854ZM96.6232 17.8061C97.0238 17.8061 97.3775 17.7273 97.6843 17.5696C97.9911 17.4077 98.2319 17.1903 98.4066 16.9176C98.5813 16.6449 98.6687 16.3359 98.6687 15.9908V14.9489C98.5835 15.0043 98.4663 15.0554 98.3171 15.1023C98.1722 15.1449 98.0082 15.1854 97.8249 15.2237C97.6417 15.2578 97.4585 15.2898 97.2752 15.3196C97.092 15.3452 96.9258 15.3686 96.7766 15.3899C96.457 15.4368 96.1779 15.5114 95.9393 15.6136C95.7006 15.7159 95.5153 15.8544 95.3832 16.0291C95.2511 16.1996 95.185 16.4126 95.185 16.6683C95.185 17.0391 95.3192 17.3224 95.5877 17.5185C95.8604 17.7102 96.2056 17.8061 96.6232 17.8061ZM107.921 19.6918C106.915 19.6918 106.05 19.4787 105.326 19.0526C104.606 18.6222 104.052 18.0256 103.664 17.2628C103.281 16.5 103.089 15.6222 103.089 14.6293C103.089 13.6236 103.283 12.7415 103.67 11.983C104.063 11.2202 104.619 10.6257 105.339 10.1996C106.059 9.76918 106.915 9.55398 107.908 9.55398C108.765 9.55398 109.515 9.70952 110.158 10.0206C110.802 10.3317 111.311 10.7685 111.686 11.331C112.061 11.8935 112.268 12.554 112.306 13.3125H109.737C109.664 12.8224 109.472 12.4283 109.161 12.13C108.854 11.8274 108.452 11.6761 107.953 11.6761C107.531 11.6761 107.163 11.7912 106.847 12.0213C106.536 12.2472 106.293 12.5774 106.119 13.0121C105.944 13.4467 105.857 13.973 105.857 14.5909C105.857 15.2173 105.942 15.75 106.112 16.1889C106.287 16.6278 106.532 16.9624 106.847 17.1925C107.163 17.4226 107.531 17.5376 107.953 17.5376C108.264 17.5376 108.543 17.4737 108.79 17.3459C109.042 17.218 109.249 17.0327 109.411 16.7898C109.577 16.5426 109.685 16.2464 109.737 15.9013H112.306C112.263 16.6513 112.059 17.3118 111.692 17.8828C111.33 18.4496 110.83 18.8928 110.19 19.2124C109.551 19.532 108.795 19.6918 107.921 19.6918ZM118.524 19.6918C117.514 19.6918 116.645 19.4872 115.916 19.0781C115.192 18.6648 114.633 18.081 114.241 17.3267C113.849 16.5682 113.653 15.6712 113.653 14.6357C113.653 13.6257 113.849 12.7393 114.241 11.9766C114.633 11.2138 115.185 10.6193 115.897 10.1932C116.613 9.76705 117.452 9.55398 118.415 9.55398C119.063 9.55398 119.666 9.65838 120.224 9.86719C120.787 10.0717 121.277 10.3807 121.694 10.794C122.116 11.2074 122.444 11.7273 122.679 12.3537C122.913 12.9759 123.03 13.7045 123.03 14.5398V15.2876H114.74V13.6001H120.467C120.467 13.2081 120.382 12.8608 120.211 12.5582C120.041 12.2557 119.805 12.0192 119.502 11.8487C119.204 11.674 118.856 11.5866 118.46 11.5866C118.047 11.5866 117.68 11.6825 117.361 11.8743C117.045 12.0618 116.798 12.3153 116.619 12.6349C116.44 12.9503 116.349 13.3018 116.344 13.6896V15.294C116.344 15.7798 116.434 16.1996 116.613 16.5533C116.796 16.907 117.054 17.1797 117.386 17.3714C117.719 17.5632 118.113 17.6591 118.569 17.6591C118.871 17.6591 119.148 17.6165 119.4 17.5312C119.651 17.446 119.866 17.3182 120.045 17.1477C120.224 16.9773 120.361 16.7685 120.454 16.5213L122.973 16.6875C122.845 17.2926 122.583 17.821 122.187 18.2727C121.795 18.7202 121.287 19.0696 120.665 19.321C120.047 19.5682 119.334 19.6918 118.524 19.6918Z" fill="#1F2937"/>
<defs>
<linearGradient id="paint0_linear_442_6889" x1="-5.20073" y1="-5.55555" x2="11.3474" y2="-5.78278" gradientUnits="userSpaceOnUse">
<stop stop-color="#FC067D"/>
<stop offset="1" stop-color="#FF0077"/>
</linearGradient>
<linearGradient id="paint1_linear_442_6889" x1="5.37053" y1="5.74843" x2="12.0357" y2="5.65691" gradientUnits="userSpaceOnUse">
<stop stop-color="#FC067D"/>
<stop offset="1" stop-color="#FF0077"/>
</linearGradient>
<clipPath id="clip0_442_6889">
<rect width="10.4167" height="10.4167" fill="white" transform="translate(7.29169 7.8125)"/>
</clipPath>
</defs>
</svg>
