<svg width="366" height="729" fill="none" xmlns="http://www.w3.org/2000/svg">
  <g mask="url(#mask)">
    <g filter="url(#a)">
      <path
        d="M363.315 64.213C363.315 22.99 341.312 1 300.092 1H66.751C25.53 1 3.528 22.99 3.528 64.213v44.68l-.857.143A2 2 0 0 0 1 111.009v24.611a2 2 0 0 0 1.671 1.973l.95.158a2.26 2.26 0 0 1-.093.236v26.173c.212.1.398.296.541.643l-1.398.233A2 2 0 0 0 1 167.009v47.611a2 2 0 0 0 1.671 1.973l1.368.228c-.139.319-.314.533-.511.653v16.637c.221.104.414.313.56.689l-1.417.236A2 2 0 0 0 1 237.009v47.611a2 2 0 0 0 1.671 1.973l1.347.225c-.135.294-.302.493-.49.607v377.681c0 41.213 22 63.208 63.223 63.208h95.074c.947-.504 2.717-.843 4.745-.843l.141.001h.194l.086-.001 33.704.005c1.849.043 3.442.37 4.323.838h95.074c41.222 0 63.223-21.999 63.223-63.212v-394.63c-.259-.275-.48-.796-.63-1.47l-.011-.133 1.655-.276A2 2 0 0 0 366 266.62v-77.611a2 2 0 0 0-1.671-1.973l-1.712-.285c.148-.839.396-1.491.698-1.811V64.213Z"
        fill="#F2F2F2" />
    </g>
    <path
      d="M305 14.5H59c-24.577 0-44.5 19.923-44.5 44.5v615c0 23.472 19.028 42.5 42.5 42.5h250c23.472 0 42.5-19.028 42.5-42.5V59c0-24.577-19.923-44.5-44.5-44.5Z"
      stroke="#D4D4D4" stroke-opacity=".5" />
    <rect x="154" y="29" width="56" height="5" rx="2.5" fill="#D4D4D4" />
  </g>
  <defs>
    <mask id="mask">
      <rect width="366" height="729" fill="#fff" />
      <path fill-rule="evenodd" clip-rule="evenodd"
        d="M89.728 24a4.213 4.213 0 0 1 4.213 4.212v2.527c0 10.235 8.3 18.532 18.539 18.532h139.04c10.239 0 18.539-8.297 18.539-18.532v-2.527A4.212 4.212 0 0 1 274.272 24h32.864C325.286 24 340 38.71 340 56.853v618.295c0 18.144-14.714 32.853-32.864 32.853H56.864c-18.15 0-32.864-14.709-32.864-32.853V56.853C24 38.709 38.714 24 56.864 24h32.864Z"
        fill="#000" />
    </mask>
  </defs>
</svg> 